<?xml version="1.0" encoding="UTF-8"?>
<svg id="Layer_1" xmlns="http://www.w3.org/2000/svg" version="1.1" viewBox="0 0 500 160">
  <!-- Generator: Adobe Illustrator 30.1.0, SVG Export Plug-In . SVG Version: 2.1.1 Build 136)  -->
  <defs>
    <style>
      .st0 {
        fill: #007bfc;
      }

      .st1 {
        fill: #00a82b;
      }

      .st2 {
        fill: red;
      }

      .st3 {
        fill: #ffaf00;
      }
    </style>
  </defs>
  <path class="st0" d="M75.83,121.27c-31.6,0-57.3-25.71-57.3-57.3S44.24,6.66,75.83,6.66c14.19,0,27.8,5.22,38.33,14.71l-9.51,10.56c-7.92-7.13-18.16-11.06-28.83-11.06-23.76,0-43.1,19.33-43.1,43.1s19.33,43.1,43.1,43.1c20.41,0,36.33-14.26,39.4-34.15h-39.46v-14.21h54.2v7.1c0,15.15-5.53,29.16-15.57,39.45-10.07,10.32-23.77,16.01-38.58,16.01Z"/>
  <path class="st2" d="M174.73,121.27c-20.44,0-37.06-16.63-37.06-37.06s16.63-37.06,37.06-37.06,37.06,16.63,37.06,37.06-16.63,37.06-37.06,37.06ZM174.73,61.35c-12.6,0-22.86,10.25-22.86,22.86s10.25,22.86,22.86,22.86,22.86-10.25,22.86-22.86-10.25-22.86-22.86-22.86Z"/>
  <path class="st3" d="M256.98,121.27c-20.44,0-37.06-16.63-37.06-37.06s16.63-37.06,37.06-37.06,37.06,16.63,37.06,37.06-16.63,37.06-37.06,37.06ZM256.98,61.35c-12.6,0-22.86,10.25-22.86,22.86s10.25,22.86,22.86,22.86,22.86-10.25,22.86-22.86-10.25-22.86-22.86-22.86Z"/>
  <path class="st2" d="M447.13,121.27c-20.44,0-37.06-16.63-37.06-37.06,0-9.74,3.82-19.02,10.75-26.14,6.76-6.94,15.8-10.92,24.79-10.92,10.68,0,20.19,4.53,27,12.66,2.16,2.58,3.95,5.46,5.38,8.51l2.28,4.88-51.9,24.05c4.13,5.93,11,9.82,18.76,9.82s14.69-3.77,18.96-10.08l11.77,7.95c-6.91,10.23-18.4,16.34-30.73,16.34ZM445.61,61.35c-5.18,0-10.51,2.42-14.61,6.63-4.16,4.27-6.53,9.75-6.71,15.5l35.59-16.49c-3.21-3.04-7.84-5.64-14.27-5.64Z"/>
  <path class="st0" d="M338.62,121.27c-19.46,0-35.3-16.63-35.3-37.06s15.83-37.06,35.3-37.06,32.15,16.63,32.15,37.06-12.69,37.06-32.15,37.06ZM338.62,61.35c-12,0-21.77,10.25-21.77,22.86s9.76,22.86,21.77,22.86,21.77-10.25,21.77-22.86-9.76-22.86-21.77-22.86Z"/>
  <path class="st0" d="M337.96,154.75c-13.66,0-26.09-7.6-32.45-19.85l12.61-6.55c3.9,7.52,11.51,12.19,19.84,12.19,12.37,0,22.43-10.25,22.43-22.86V49.79h14.21v67.9c0,20.44-16.43,37.06-36.63,37.06Z"/>
  <rect class="st1" x="386.27" y="10.65" width="14.21" height="107.97"/>
</svg>