<?xml version="1.0" encoding="UTF-8"?>
<svg id="Layer_1" xmlns="http://www.w3.org/2000/svg" version="1.1" viewBox="0 0 300 160">
  <!-- Generator: Adobe Illustrator 30.1.0, SVG Export Plug-In . SVG Version: 2.1.1 Build 136)  -->
  <defs>
    <style>
      .st0 {
        fill: #3dbb3d;
      }
    </style>
  </defs>
  <path id="path4" class="st0" d="M68.49,59.97c4.88,3.97,7.33,10.17,7.33,18.6v42.33h-23.27v-39.22c0-1.71-.64-3.21-1.92-4.49-1.28-1.28-2.78-1.92-4.49-1.92h-13.56c-1.71,0-3.18.64-4.4,1.92-1.22,1.28-1.83,2.78-1.83,4.49v39.22H2.88V23.59h23.46v31.7c.37-.12,1.22-.37,2.57-.73,1.34-.37,3.11-.55,5.31-.55h15.03c7.94,0,14.36,1.99,19.24,5.96ZM142.35,54.02h23.46v41.05c0,7.7-2.11,13.93-6.32,18.69-4.22,4.76-9.93,7.15-17.14,7.15h-23.09c-8.06,0-14.51-2.23-19.33-6.69-4.83-4.46-7.24-10.84-7.24-19.15v-41.05h23.46v39.22c0,1.71.61,3.18,1.83,4.4,1.22,1.22,2.69,1.83,4.4,1.83h13.56c1.71,0,3.21-.61,4.49-1.83,1.28-1.22,1.92-2.69,1.92-4.4v-39.22ZM183.58,23.59h23.46v97.31h-23.46V23.59ZM297.94,54.02v41.05c0,7.7-2.11,13.93-6.32,18.69-4.21,4.76-9.93,7.15-17.14,7.15h-22.91c-8.19,0-14.69-2.23-19.52-6.69-4.83-4.46-7.24-10.84-7.24-19.15v-41.05h23.46v39.22c0,1.71.61,3.18,1.83,4.4,1.22,1.22,2.69,1.83,4.4,1.83h13.74c1.71,0,3.18-.61,4.4-1.83,1.22-1.22,1.83-2.69,1.83-4.4v-39.22h23.46Z"/>
</svg>