<?xml version="1.0" encoding="UTF-8"?>
<svg id="Layer_1" xmlns="http://www.w3.org/2000/svg" version="1.1" viewBox="0 0 400 160">
  <!-- Generator: Adobe Illustrator 30.1.0, SVG Export Plug-In . SVG Version: 2.1.1 Build 136)  -->
  <defs>
    <style>
      .st0 {
        fill: #d81f26;
      }
    </style>
  </defs>
  <path class="st0" d="M55.21,126.58c-6.01,1.06-12.12,1.37-18.45,2.21l-19.29-56.5v58.93c-6.01.63-11.49,1.48-17.18,2.32V25.6h16.02l21.93,61.25V25.6h16.97v100.98h0ZM88.41,65.13c6.54,0,16.55-.32,22.56-.32v16.87c-7.48,0-16.23,0-22.56.32v25.09c9.91-.63,19.82-1.48,29.83-1.79v16.23l-46.7,3.69V25.6h46.7v16.87h-29.83s0,22.66,0,22.66ZM180.96,42.46h-17.5v77.58c-5.69,0-11.38,0-16.87.21V42.46h-17.5v-16.87h51.86v16.87ZM208.37,63.97h23.09v16.87h-23.09v38.26h-16.55V25.6h47.12v16.87h-30.57v21.5ZM266.35,104.34c9.59.21,19.29.95,28.67,1.48v16.66c-15.07-.95-30.15-1.9-45.54-2.21V25.6h16.87v78.74h0ZM309.25,123.63c5.38.32,11.07.63,16.55,1.26V25.6h-16.55v98.03ZM399.69,25.6l-21.4,51.34,21.4,56.61c-6.33-.84-12.65-2-18.97-3.06l-12.12-31.2-12.33,28.67c-6.12-1.06-12.02-1.37-18.13-2.21l21.71-49.44-19.61-50.7h18.13l11.07,28.36,11.81-28.36h18.45Z"/>
</svg>