<?xml version="1.0" encoding="UTF-8"?>
<svg id="Layer_1" xmlns="http://www.w3.org/2000/svg" xmlns:xlink="http://www.w3.org/1999/xlink" version="1.1" viewBox="0 0 500 160">
  <!-- Generator: Adobe Illustrator 30.1.0, SVG Export Plug-In . SVG Version: 2.1.1 Build 136)  -->
  <defs>
    <style>
      .st0 {
        fill: url(#_É_πÌÚ_·ÂÁ_Ì_Á_Ë_3);
      }

      .st1 {
        fill: url(#_É_πÌÚ_·ÂÁ_Ì_Á_Ë_37);
      }

      .st2 {
        fill: url(#_É_πÌÚ_·ÂÁ_Ì_Á_Ë_38);
      }

      .st3 {
        fill: url(#_É_πÌÚ_·ÂÁ_Ì_Á_Ë_36);
      }

      .st4 {
        fill: url(#_É_πÌÚ_·ÂÁ_Ì_Á_Ë_33);
      }

      .st5 {
        fill: url(#_É_πÌÚ_·ÂÁ_Ì_Á_Ë_31);
      }

      .st6 {
        fill: url(#_É_πÌÚ_·ÂÁ_Ì_Á_Ë_35);
      }

      .st7 {
        fill: url(#_É_πÌÚ_·ÂÁ_Ì_Á_Ë_32);
      }

      .st8 {
        fill: url(#_É_πÌÚ_·ÂÁ_Ì_Á_Ë_34);
      }
    </style>
    <linearGradient id="_É_πÌÚ_·ÂÁ_Ì_Á_Ë_3" data-name="É‡‰¥πÌÚ ·ÂÁ Ì‡Á‚Ë 3" x1="325.14" y1=".35" x2="322.94" y2="113.17" gradientUnits="userSpaceOnUse">
      <stop offset="0" stop-color="#00c7ff"/>
      <stop offset="1" stop-color="#0072ff"/>
    </linearGradient>
    <linearGradient id="_É_πÌÚ_·ÂÁ_Ì_Á_Ë_31" data-name="É‡‰¥πÌÚ ·ÂÁ Ì‡Á‚Ë 3" x1="474.39" y1="3.26" x2="472.2" y2="116.08" xlink:href="#_É_πÌÚ_·ÂÁ_Ì_Á_Ë_3"/>
    <linearGradient id="_É_πÌÚ_·ÂÁ_Ì_Á_Ë_32" data-name="É‡‰¥πÌÚ ·ÂÁ Ì‡Á‚Ë 3" x1="145.03" y1="-3.16" x2="142.84" y2="109.66" xlink:href="#_É_πÌÚ_·ÂÁ_Ì_Á_Ë_3"/>
    <linearGradient id="_É_πÌÚ_·ÂÁ_Ì_Á_Ë_33" data-name="É‡‰¥πÌÚ ·ÂÁ Ì‡Á‚Ë 3" x1="184.2" y1="-2.39" x2="182" y2="110.43" xlink:href="#_É_πÌÚ_·ÂÁ_Ì_Á_Ë_3"/>
    <linearGradient id="_É_πÌÚ_·ÂÁ_Ì_Á_Ë_34" data-name="É‡‰¥πÌÚ ·ÂÁ Ì‡Á‚Ë 3" x1="231.88" y1="-1.46" x2="229.69" y2="111.36" xlink:href="#_É_πÌÚ_·ÂÁ_Ì_Á_Ë_3"/>
    <linearGradient id="_É_πÌÚ_·ÂÁ_Ì_Á_Ë_35" data-name="É‡‰¥πÌÚ ·ÂÁ Ì‡Á‚Ë 3" x1="274.96" y1="-.62" x2="272.76" y2="112.19" xlink:href="#_É_πÌÚ_·ÂÁ_Ì_Á_Ë_3"/>
    <linearGradient id="_É_πÌÚ_·ÂÁ_Ì_Á_Ë_36" data-name="É‡‰¥πÌÚ ·ÂÁ Ì‡Á‚Ë 3" x1="374.89" y1="1.32" x2="372.7" y2="114.14" xlink:href="#_É_πÌÚ_·ÂÁ_Ì_Á_Ë_3"/>
    <linearGradient id="_É_πÌÚ_·ÂÁ_Ì_Á_Ë_37" data-name="É‡‰¥πÌÚ ·ÂÁ Ì‡Á‚Ë 3" x1="424.44" y1="2.29" x2="422.25" y2="115.11" xlink:href="#_É_πÌÚ_·ÂÁ_Ì_Á_Ë_3"/>
    <linearGradient id="_É_πÌÚ_·ÂÁ_Ì_Á_Ë_38" data-name="É‡‰¥πÌÚ ·ÂÁ Ì‡Á‚Ë 3" x1="53.34" y1="26.35" x2="53.34" y2="130.88" xlink:href="#_É_πÌÚ_·ÂÁ_Ì_Á_Ë_3"/>
  </defs>
  <g>
    <path class="st0" d="M313.49,72.71c2.99-3.37,6.1-5.29,10.68-5.78,10.42-1.12,18.7,5.06,21.39,14.91,2.48,9.1.3,20.01-7.64,25.78-7.8,5.67-20,5.09-25.52-3.52-.2-.31-.3-.28-.31.09l-.2,5.79c0,.15-.08.22-.23.22h-10.47c-.06,0-.11-.05-.11-.11h0v-62.47c0-.14.06-.22.2-.24l11.8-1.5c.09-.01.18.05.19.14,0,0,0,.01,0,.02v26.6c0,.21.07.24.21.08ZM332.11,96.49c4.05-6.17,2.33-17.48-6.08-19.15-3.92-.78-7.81.24-10.36,3.44-4.1,5.15-3.53,14.62,2.23,18.43,4.52,3,11.16,1.92,14.21-2.73Z"/>
    <path class="st5" d="M463.12,90.87v19.28c0,.08-.06.14-.14.14h-11.89c-.08,0-.14-.06-.14-.14h0v-62.63c0-.07.05-.13.12-.14l11.89-1.51c.08,0,.15.05.16.12,0,0,0,.01,0,.02v39.62c0,.08.06.14.14.14.04,0,.08-.02.11-.05l15.22-17.9s.07-.05.11-.05h13.19c.08,0,.14.06.14.14,0,.03-.01.07-.03.09l-16.66,19.44c-.04.05-.04.13,0,.18l19.54,22.44c.05.06.04.15-.02.2-.03.02-.06.03-.09.03h-14.53s-.08-.02-.11-.05l-16.76-19.46c-.05-.06-.14-.07-.2-.02-.03.03-.05.07-.05.11Z"/>
    <path class="st7" d="M147.57,78.32v31.66c0,.14-.07.21-.2.21h-11.79c-.14,0-.2-.07-.2-.2v-31.66c0-.14-.07-.22-.22-.22h-6.51c-.14,0-.2-.06-.2-.2v-9.79c0-.17.09-.25.25-.25h6.46c.14,0,.21-.07.22-.21.04-4.66-.26-8.73,1.56-13.15,3.54-8.61,14.44-8.69,21.94-7.03.12.03.19.1.19.23v8.88c0,.15-.07.22-.22.21-2.71-.22-7.06-.5-9.31,1.49-2.48,2.19-2.03,6.43-1.96,9.38,0,.14.08.21.22.21h10.64s.08.04.08.09c0,0,0,0,0,.01l-1.83,9.96c-.02.12-.1.19-.22.19h-8.67c-.14,0-.21.07-.21.21Z"/>
    <path class="st4" d="M193.76,103.95c-.42.47-.74,1.09-1.1,1.5-3.17,3.68-7.34,5.62-12.5,5.82-5.14.2-9.62-1.38-13.43-4.74-7.28-6.41-8.81-17.62-5.87-26.31,2.61-7.73,9.43-13.02,17.64-13.46,6.17-.33,11.68,2.06,15.19,7.27.15.23.24.2.24-.07l.2-6c0-.13.07-.19.2-.19h10.53c.05,0,.09.04.09.09h0v42.34c0,.05-.04.09-.09.09h-10.53c-.13,0-.2-.07-.2-.2l-.19-6.07c0-.18-.07-.2-.19-.07ZM171.84,87.58c-.44,6.55,2.67,12.74,9.77,13.3,12.78,1.01,15.23-18.56,5.14-22.94-3.39-1.47-7.84-1.05-10.76,1.26-2.55,2.02-3.93,5.15-4.15,8.38Z"/>
    <path class="st8" d="M228.37,67.15c6.98-1.18,14.92.41,20.36,5.16.11.1.13.21.05.34l-4.6,7.74c-.08.14-.18.16-.31.07-5.03-3.22-11.84-4.78-16.97-.85-5.35,4.09-5.38,13.86-.5,18.3,5.32,4.84,13.28,2.91,18.4-1.04.13-.1.23-.08.31.06l4.51,7.53c.08.13.06.25-.05.35-11.22,10.56-31.3,8.21-37.52-6.65-1.13-2.71-1.72-5.7-1.78-8.98-.17-11.09,7.03-20.17,18.09-22.03Z"/>
    <path class="st6" d="M264.02,93.53c1.54,5.21,6.8,7.92,11.94,7.98,4.98.05,9.47-1.36,13.48-4.23.13-.09.23-.07.31.07l4.22,7.44c.05.09.03.17-.05.23-13.18,10.92-37.91,8.15-41.46-11.38-1.77-9.69,1.91-20.09,10.99-24.55,6.11-3,14.51-3.18,20.64-.18,8.81,4.31,11.5,15.11,9.89,24.22-.02.13-.1.19-.22.19h-29.58c-.15,0-.2.07-.16.21ZM272.91,76.2c-4.92.34-8.3,3.64-9.15,8.6-.02.09.02.14.12.14h19.02c.14,0,.21-.07.21-.21-.13-6.06-4.6-8.92-10.19-8.53Z"/>
    <path class="st3" d="M387.45,71.07c7,5.01,9.74,13.81,8.29,22.23-1.18,6.88-4.77,11.95-10.78,15.2-8.02,4.33-18.8,3.6-26.16-1.6-11.5-8.13-11.33-27.58-.02-35.75,8.12-5.87,20.5-5.92,28.66-.08ZM383.27,84.96c-1.43-5.65-6.47-8.68-12.23-7.64-10.65,1.93-11.23,18.98-1.82,22.81,3.11,1.27,6.85.96,9.72-.9,4.63-3,5.58-9.31,4.32-14.26Z"/>
    <path class="st1" d="M436.38,70.59c4.19,2.71,6.98,6.53,8.35,11.45,3.65,13.09-2.91,26.16-16.87,28.79-12.48,2.35-25.1-3.91-27.57-17.09-1.09-5.82-.36-11.13,2.21-15.92,6.31-11.78,23.19-14.14,33.88-7.23ZM425.05,77.31c-9.77-1.86-14.59,7.47-12.32,15.74,1.63,5.95,7.41,9.22,13.26,7.35,10.23-3.26,9.79-21.05-.94-23.09Z"/>
  </g>
  <path class="st2" d="M91.25,26.35H15.43c-7.92,0-14.35,6.42-14.35,14.35v75.83c0,7.92,6.42,14.35,14.35,14.35h28.96v-36.24h0s-.02-.05-.05-.05h-13.93s-.05-.02-.05-.05v-16.16s.01-.03.03-.03h13.95s.05-.02.05-.05c0-3.92,0-7.84,0-11.76,0-4.62.86-9.31,3.44-13.23,3.6-5.47,9.48-8.02,15.88-8.36.39-.02.89-.03,1.5-.03,3.09,0,6.17.1,9.26.32,1.11.08,2.21.18,3.3.31.02,0,.03.01.03.03v14.47h0s0,.02-.02.02c-2.9,0-5.81,0-8.71,0-3.14,0-6.45.74-7.46,4.2-.32,1.1-.42,2.16-.43,3.27-.01,3.56-.02,7.14-.02,10.74,0,.04.02.05.05.05h16s0,0,0,0c.01,0,.02.01.02.03l-2.09,16.18s-.02.04-.04.04h-13.93s-.02,0-.02.02v36.27s30.11,0,30.11,0c7.92,0,14.35-6.42,14.35-14.35V40.7c0-7.92-6.42-14.35-14.35-14.35Z"/>
</svg>