<?xml version="1.0" encoding="UTF-8"?>
<svg id="Layer_1" xmlns="http://www.w3.org/2000/svg" version="1.1" viewBox="0 0 500 160">
  <!-- Generator: Adobe Illustrator 30.1.0, SVG Export Plug-In . SVG Version: 2.1.1 Build 136)  -->
  <defs>
    <style>
      .st0 {
        fill: #1ed760;
      }
    </style>
  </defs>
  <g>
    <path class="st0" d="M488.27,61.47c-4.89,0-8.74,3.97-8.74,8.74s3.81,8.7,8.69,8.7,8.75-3.98,8.75-8.75-3.81-8.69-8.7-8.69ZM488.22,78.04c-4.43,0-7.78-3.49-7.78-7.83s3.37-7.88,7.83-7.88,7.78,3.49,7.78,7.83-3.37,7.88-7.83,7.88Z"/>
    <path class="st0" d="M490.2,71.05h0c1.25-.36,2.12-1.27,2.11-2.77,0-1.82-1.39-2.91-3.52-2.91h-4.07v9.13h1.74v-3.16h1.9l2.22,3.16h2.08l-2.46-3.45ZM488.72,69.82h-2.26v-2.89h2.26c1.13,0,1.81.51,1.81,1.44s-.68,1.45-1.81,1.45Z"/>
    <path class="st0" d="M477.66,62.86l-21.44,55.41c-4.44,11.44-9.49,15.7-18.62,15.7-4.88,0-8.82-1.01-13.2-3.38-.42-.23-.59-.73-.39-1.17l4.19-9.2c.1-.23.29-.4.54-.48.23-.07.5-.05.71.07,2.34,1.29,4.64,1.94,6.82,1.94,2.69,0,4.67-.89,6.68-5.34l-17.68-42.4h-11.54v42.4c0,.51-.4.91-.91.91h-12.36c-.5,0-.91-.4-.91-.91v-42.4h-5.94c-.5,0-.91-.41-.91-.91v-10.68c0-.5.41-.9.91-.9h5.94v-2.62c0-12.15,6.04-18.58,17.45-18.58,4.7,0,7.83.75,10.27,1.48.39.12.64.47.64.87v10.42c0,.29-.14.56-.37.73-.23.17-.52.22-.81.13-2.32-.77-4.39-1.28-6.97-1.28-4.32,0-6.25,2.24-6.25,7.27v1.71h21.12c.37,0,.71.23.84.58l14.43,37.67,13.19-37.65c.12-.36.47-.61.86-.61h12.87c.29,0,.57.15.73.39.17.25.21.56.1.84Z"/>
    <path class="st0" d="M388.79,45.88c0,4.9-3.96,8.87-8.86,8.87s-8.87-3.97-8.87-8.87,3.97-8.86,8.87-8.86,8.86,3.96,8.86,8.86Z"/>
    <path class="st0" d="M386.95,62.48v53.92c0,.51-.41.91-.91.91h-12.36c-.5,0-.91-.4-.91-.91v-53.92c0-.5.41-.91.91-.91h12.36c.51,0,.91.41.91.91Z"/>
    <path class="st0" d="M352.52,74.01v25.55c0,4.03,1.78,5.83,5.74,5.83,2.58,0,4.88-.55,7.25-1.75.28-.15.61-.14.88.04.27.16.43.46.43.76v10.12c0,.32-.17.63-.46.78-3.47,1.96-7.14,2.88-11.57,2.88-10.91,0-16.44-5.64-16.44-16.74v-27.49h-5.94c-.5,0-.9-.41-.9-.91v-10.62c0-.5.4-.91.9-.91h5.94v-13.91c0-.5.41-.91.91-.91h12.36c.5,0,.9.41.9.91v13.91h13.62c.51,0,.91.41.89.91v10.62c0,.5-.4.91-.9.91h-13.6Z"/>
    <path class="st0" d="M300.95,60.44c-16.66,0-29.71,12.83-29.71,29.2s12.96,28.89,29.51,28.89,29.81-12.78,29.81-29.1-13-29-29.6-29ZM300.95,105.99c-8.86,0-15.54-7.12-15.54-16.56s6.45-16.36,15.34-16.36,15.64,7.12,15.64,16.57-6.49,16.35-15.44,16.35Z"/>
    <path class="st0" d="M241.36,60.44h0c-6.96,0-12.67,2.74-17.38,8.36v-6.33c0-.5-.4-.91-.9-.91h-12.36c-.5,0-.9.4-.9.91v70.27c0,.5.4.91.9.91h12.36c.5,0,.9-.41.9-.91v-22.18c4.72,5.28,10.43,7.86,17.38,7.86,12.94,0,26.03-9.96,26.03-28.99.02-19.04-13.08-29-26.03-29ZM238.49,105.9c-8.45,0-14.83-7.07-14.83-16.46s6.37-16.46,14.83-16.46,14.52,6.92,14.52,16.46-5.96,16.46-14.52,16.46Z"/>
    <path class="st0" d="M205.02,95.97c0,13.58-10.38,22.36-26.44,22.36-11.36,0-21.88-4.03-30.43-11.67-.36-.33-.4-.88-.09-1.26l7.56-8.99c.15-.18.37-.29.62-.31.23,0,.47.06.66.22,7.35,6.36,13.93,9.08,21.99,9.08,7.25,0,11.76-3.14,11.76-8.19,0-4.56-2.24-7.11-15.44-10.15-15.52-3.75-24.51-8.61-24.51-22.33,0-12.8,10.42-21.74,25.32-21.74,10.14,0,18.81,3.01,26.51,9.19.37.3.45.84.17,1.23l-6.74,9.5c-.14.2-.35.33-.6.37-.24.04-.49-.02-.68-.17-6.47-4.83-12.64-7.17-18.87-7.17s-10.74,3.09-10.74,7.67c0,4.85,2.45,7.16,16.26,10.46h.03c16.81,4.1,23.68,10.45,23.65,21.92Z"/>
  </g>
  <g>
    <path class="st0" d="M69.99,21.73c-33.03,0-59.81,26.78-59.81,59.81s26.78,59.8,59.81,59.8,59.81-26.77,59.81-59.8-26.77-59.8-59.81-59.8h0Z"/>
    <g>
      <path d="M113.04,72.79c-1.57,2.66-5.01,3.53-7.66,1.96h0c-19.27-11.45-51.08-12.5-69.48-6.92-2.96.9-6.08-.77-6.98-3.73-.89-2.96.77-6.08,3.73-6.98,21.13-6.41,56.24-5.17,78.44,8,2.66,1.58,3.53,5.01,1.96,7.67Z"/>
      <path d="M97.42,107.99c-1.07,1.76-3.37,2.31-5.13,1.23-14.04-8.58-31.72-10.52-52.54-5.76-2.01.46-4-.8-4.46-2.8-.46-2.01.79-4.01,2.8-4.47,22.78-5.2,42.32-2.96,58.09,6.67,1.76,1.08,2.31,3.37,1.24,5.13Z"/>
      <path d="M104.74,91.7c-1.35,2.19-4.22,2.89-6.41,1.54-16.08-9.88-40.58-12.74-59.6-6.97-2.47.75-5.07-.64-5.82-3.11-.74-2.47.65-5.06,3.11-5.81,21.72-6.59,48.72-3.4,67.18,7.94,2.19,1.35,2.89,4.22,1.54,6.41Z"/>
    </g>
  </g>
</svg>